<svg xmlns="http://www.w3.org/2000/svg" width="1437" height="207" fill="none"><path fill="#fff" d="M555.51 118.66H470V96.39l55.25-75.48H471.7V0h82.11v22.27l-55.25 75.48h56.95v20.91ZM646.564 118.66c-5.27 0-9.52-1.19-12.58-3.91-3.23-2.72-5.1-6.46-5.61-11.56h-.85c-1.7 5.78-4.76 10.2-9.52 13.09-4.76 3.06-10.37 4.42-17.17 4.42-8.5 0-15.47-2.21-20.57-6.8s-7.65-11.05-7.65-19.38c0-9.18 3.23-15.98 10.03-20.4 6.63-4.42 16.49-6.63 29.41-6.63h14.11v-4.42c0-5.1-1.36-9.01-3.74-11.73-2.38-2.72-6.46-4.08-12.24-4.08-5.44 0-9.69 1.02-12.92 3.06-3.4 2.04-6.12 4.76-8.5 7.99l-13.77-12.24c2.89-4.93 7.48-9.01 13.77-12.24 6.29-3.23 14.45-4.93 24.31-4.93 11.9 0 21.25 2.89 28.05 8.33 6.8 5.44 10.2 13.77 10.2 24.82v38.42h9.69v18.19h-14.45Zm-36.21-14.45c4.42 0 8.16-1.02 11.22-3.23 3.06-2.04 4.59-5.27 4.59-9.35V81.09h-13.43c-10.37 0-15.47 3.57-15.47 10.37v3.4c0 3.06 1.19 5.44 3.57 6.97 2.38 1.7 5.44 2.38 9.52 2.38ZM675.737 30.94h25.16v15.98h1.19c2.04-5.1 5.27-9.52 9.35-12.92 4.08-3.4 9.52-5.1 16.66-5.1 4.76 0 9.18 1.02 13.26 2.72 4.08 1.87 7.48 4.59 10.37 8.33 2.89 3.74 5.1 8.5 6.8 14.28 1.7 5.78 2.55 12.75 2.55 20.57 0 7.99-.85 14.79-2.55 20.57-1.7 5.78-3.91 10.54-6.8 14.28-2.89 3.74-6.29 6.63-10.37 8.33-4.08 1.87-8.5 2.72-13.26 2.72-7.14 0-12.58-1.53-16.66-4.93-4.08-3.4-7.31-7.65-9.35-13.09h-1.19v49.98h-25.16V30.94Zm41.48 70.21c5.61 0 10.03-1.7 13.09-5.1 3.06-3.4 4.59-8.33 4.59-14.45V68c0-6.12-1.53-10.88-4.59-14.28-3.06-3.4-7.48-5.27-13.09-5.27-4.42 0-8.33 1.19-11.56 3.23-3.23 2.21-4.76 5.61-4.76 10.2v25.84c0 4.76 1.53 8.16 4.76 10.2 3.23 2.21 7.14 3.23 11.56 3.23ZM777.671 30.94h25.16v15.98h1.19c2.04-5.1 5.27-9.52 9.35-12.92 4.08-3.4 9.52-5.1 16.66-5.1 4.76 0 9.18 1.02 13.26 2.72 4.08 1.87 7.48 4.59 10.37 8.33 2.89 3.74 5.1 8.5 6.8 14.28 1.7 5.78 2.55 12.75 2.55 20.57 0 7.99-.85 14.79-2.55 20.57-1.7 5.78-3.91 10.54-6.8 14.28-2.89 3.74-6.29 6.63-10.37 8.33-4.08 1.87-8.5 2.72-13.26 2.72-7.14 0-12.58-1.53-16.66-4.93-4.08-3.4-7.31-7.65-9.35-13.09h-1.19v49.98h-25.16V30.94Zm41.48 70.21c5.61 0 10.03-1.7 13.09-5.1 3.06-3.4 4.59-8.33 4.59-14.45V68c0-6.12-1.53-10.88-4.59-14.28-3.06-3.4-7.48-5.27-13.09-5.27-4.42 0-8.33 1.19-11.56 3.23-3.23 2.21-4.76 5.61-4.76 10.2v25.84c0 4.76 1.53 8.16 4.76 10.2 3.23 2.21 7.14 3.23 11.56 3.23ZM882.154 99.11h20.23V50.49h-20.23V30.94h45.39v24.82h1.19c.68-3.06 1.87-6.12 3.23-9.18 1.36-3.06 3.23-5.61 5.44-7.99 2.21-2.38 4.93-4.25 8.16-5.61 3.06-1.36 6.8-2.04 11.22-2.04h8.33v23.12h-18.7c-6.29 0-11.05 1.87-14.11 5.61-3.23 3.74-4.76 8.16-4.76 13.43v26.01h28.9v19.55h-74.29V99.11ZM12.425 195.61h-.175c-.327.537-.677 1.05-1.05 1.54-.35.49-.758.922-1.225 1.295-.467.35-1.003.63-1.61.84-.583.21-1.272.315-2.065.315-2.077 0-3.652-.735-4.725-2.205C.525 195.902 0 193.697 0 190.78c0-.933.058-1.983.175-3.15.14-1.19.373-2.392.7-3.605a20.993 20.993 0 0 1 1.295-3.57 12.36 12.36 0 0 1 2.03-3.115 9.34 9.34 0 0 1 2.87-2.17c1.12-.56 2.415-.84 3.885-.84 1.12 0 2.077.163 2.87.49.793.327 1.447.758 1.96 1.295a5.288 5.288 0 0 1 1.225 1.75c.28.653.49 1.318.63 1.995l-2.59.84a7.785 7.785 0 0 0-.49-1.47 3.893 3.893 0 0 0-.77-1.225 3.575 3.575 0 0 0-1.225-.84c-.49-.21-1.097-.315-1.82-.315-1.003 0-1.902.198-2.695.595a6.32 6.32 0 0 0-2.03 1.68c-.56.7-1.038 1.563-1.435 2.59-.373 1.003-.665 2.135-.875 3.395l-.56 3.36a12.576 12.576 0 0 0-.175 1.61c-.023.513-.035.922-.035 1.225 0 1.797.327 3.22.98 4.27.653 1.05 1.75 1.575 3.29 1.575.84 0 1.587-.152 2.24-.455a6.008 6.008 0 0 0 1.75-1.26 6.264 6.264 0 0 0 1.225-1.855c.327-.7.56-1.447.7-2.24l.315-1.89H8.33l.385-2.31h7.77l-1.995 12.04h-2.66l.595-3.57ZM32.641 194.91h-.14c-.676 1.447-1.481 2.59-2.415 3.43-.933.84-2.135 1.26-3.605 1.26-1.516 0-2.718-.455-3.605-1.365-.863-.91-1.295-2.193-1.295-3.85 0-.747.07-1.528.21-2.345l1.82-10.92h2.73l-1.785 10.675c-.07.42-.116.805-.14 1.155-.023.327-.035.583-.035.77 0 1.073.245 1.925.735 2.555.49.607 1.249.91 2.275.91.794 0 1.494-.175 2.1-.525a6.175 6.175 0 0 0 1.715-1.435l.42-.525c.21-.257.42-.56.63-.91.21-.373.409-.782.595-1.225.187-.467.327-.957.42-1.47l1.68-9.975h2.73l-3.01 18.06h-2.73l.7-4.27ZM47.118 199.6c-1.774 0-3.139-.583-4.095-1.75-.934-1.167-1.4-2.917-1.4-5.25 0-1.213.14-2.508.42-3.885.303-1.4.781-2.695 1.435-3.885a8.742 8.742 0 0 1 2.59-2.94c1.073-.793 2.391-1.19 3.955-1.19 1.306 0 2.391.303 3.255.91.863.583 1.493 1.47 1.89 2.66h.105l.525-3.15h2.73l-2.59 15.61h2.485l-.42 2.45h-2.03c-1.12 0-1.89-.292-2.31-.875-.397-.583-.525-1.283-.385-2.1l.21-1.295h-.105c-.7 1.423-1.529 2.567-2.485 3.43-.957.84-2.217 1.26-3.78 1.26Zm.945-2.415a5.41 5.41 0 0 0 2.17-.455c.723-.327 1.388-.84 1.995-1.54a7.904 7.904 0 0 0 1.19-1.855c.35-.7.595-1.458.735-2.275l.665-3.99c.21-1.26-.082-2.228-.875-2.905-.77-.7-1.82-1.05-3.15-1.05-1.68 0-3.01.525-3.99 1.575-.957 1.05-1.575 2.415-1.855 4.095l-.42 2.52a17.32 17.32 0 0 0-.105.875 7.01 7.01 0 0 0-.035.7c0 1.353.303 2.415.91 3.185.63.747 1.551 1.12 2.765 1.12ZM66.879 199.18l2.625-15.715h-5.075l.385-2.345h7.805l-.805 4.83h.175c.303-.723.653-1.377 1.05-1.96a6.717 6.717 0 0 1 1.365-1.54 6.207 6.207 0 0 1 1.82-.98c.677-.233 1.447-.35 2.31-.35h2.73l-.455 2.73h-3.08c-1.05 0-1.925.152-2.625.455-.7.28-1.318.735-1.855 1.365-.117.14-.28.338-.49.595a7.982 7.982 0 0 0-.595.875c-.21.35-.408.747-.595 1.19a8.592 8.592 0 0 0-.385 1.435l-1.575 9.415h-2.73ZM95.74 194.91h-.105c-.7 1.423-1.551 2.567-2.555 3.43-.98.84-2.263 1.26-3.85 1.26-1.82 0-3.22-.583-4.2-1.75-.956-1.167-1.435-2.917-1.435-5.25 0-1.213.14-2.508.42-3.885.304-1.4.782-2.695 1.435-3.885a8.944 8.944 0 0 1 2.66-2.94c1.097-.793 2.439-1.19 4.025-1.19 1.33 0 2.439.303 3.325.91.91.583 1.564 1.47 1.96 2.66h.105l1.855-10.99h2.73l-4.34 25.9h-2.73l.7-4.27Zm-5.565 2.275a5.66 5.66 0 0 0 2.205-.455c.724-.327 1.4-.84 2.03-1.54a8.003 8.003 0 0 0 1.225-1.82c.374-.7.63-1.47.77-2.31l.665-3.99c.21-1.26-.093-2.228-.91-2.905-.793-.7-1.866-1.05-3.22-1.05-1.75 0-3.126.525-4.13 1.575-.98 1.05-1.61 2.415-1.89 4.095l-.42 2.52a17.32 17.32 0 0 0-.105.875 7.04 7.04 0 0 0-.035.7c0 1.353.315 2.415.945 3.185.654.747 1.61 1.12 2.87 1.12ZM110.077 199.6c-1.774 0-3.139-.583-4.095-1.75-.934-1.167-1.4-2.917-1.4-5.25 0-1.213.14-2.508.42-3.885.303-1.4.781-2.695 1.435-3.885a8.733 8.733 0 0 1 2.59-2.94c1.073-.793 2.391-1.19 3.955-1.19 1.306 0 2.391.303 3.255.91.863.583 1.493 1.47 1.89 2.66h.105l.525-3.15h2.73l-2.59 15.61h2.485l-.42 2.45h-2.03c-1.12 0-1.89-.292-2.31-.875-.397-.583-.525-1.283-.385-2.1l.21-1.295h-.105c-.7 1.423-1.529 2.567-2.485 3.43-.957.84-2.217 1.26-3.78 1.26Zm.945-2.415c.746 0 1.47-.152 2.17-.455.723-.327 1.388-.84 1.995-1.54a7.932 7.932 0 0 0 1.19-1.855c.35-.7.595-1.458.735-2.275l.665-3.99c.21-1.26-.082-2.228-.875-2.905-.77-.7-1.82-1.05-3.15-1.05-1.68 0-3.01.525-3.99 1.575-.957 1.05-1.575 2.415-1.855 4.095l-.42 2.52c-.047.327-.082.618-.105.875a6.836 6.836 0 0 0-.035.7c0 1.353.303 2.415.91 3.185.63.747 1.551 1.12 2.765 1.12ZM151.454 206.6c-.373 0-.723-.082-1.05-.245-.326-.14-.688-.373-1.085-.7a16.464 16.464 0 0 1-1.365-1.295c-.49-.513-1.085-1.155-1.785-1.925l-2.135-2.345 1.855-1.68 5.39 5.74.63-.14 3.43-20.545h-6.44l.385-2.345h6.44l.63-3.745c.187-1.19.665-2.17 1.435-2.94s1.832-1.155 3.185-1.155h6.055l-.385 2.345h-7.28l-.91 5.495h7.315l-.385 2.345h-7.315l-3.255 19.46c-.07.49-.186.957-.35 1.4a3.745 3.745 0 0 1-.665 1.155c-.256.35-.583.618-.98.805-.396.21-.851.315-1.365.315ZM173.036 199.6c-1.774 0-3.139-.583-4.095-1.75-.934-1.167-1.4-2.917-1.4-5.25 0-1.213.14-2.508.42-3.885.303-1.4.781-2.695 1.435-3.885a8.733 8.733 0 0 1 2.59-2.94c1.073-.793 2.391-1.19 3.955-1.19 1.306 0 2.391.303 3.255.91.863.583 1.493 1.47 1.89 2.66h.105l.525-3.15h2.73l-2.59 15.61h2.485l-.42 2.45h-2.03c-1.12 0-1.89-.292-2.31-.875-.397-.583-.525-1.283-.385-2.1l.21-1.295h-.105c-.7 1.423-1.529 2.567-2.485 3.43-.957.84-2.217 1.26-3.78 1.26Zm.945-2.415c.746 0 1.47-.152 2.17-.455.723-.327 1.388-.84 1.995-1.54a7.932 7.932 0 0 0 1.19-1.855c.35-.7.595-1.458.735-2.275l.665-3.99c.21-1.26-.082-2.228-.875-2.905-.77-.7-1.82-1.05-3.15-1.05-1.68 0-3.01.525-3.99 1.575-.957 1.05-1.575 2.415-1.855 4.095l-.42 2.52c-.047.327-.082.618-.105.875a6.836 6.836 0 0 0-.035.7c0 1.353.303 2.415.91 3.185.63.747 1.551 1.12 2.765 1.12ZM196.017 199.6c-1.12 0-2.112-.187-2.975-.56a6.19 6.19 0 0 1-2.135-1.54c-.56-.677-.992-1.482-1.295-2.415-.28-.957-.42-1.995-.42-3.115 0-1.727.245-3.278.735-4.655.49-1.4 1.155-2.59 1.995-3.57a8.515 8.515 0 0 1 2.94-2.24 8.457 8.457 0 0 1 3.64-.805c.957 0 1.785.117 2.485.35.723.233 1.342.548 1.855.945.513.373.922.828 1.225 1.365.327.537.572 1.097.735 1.68l-2.345.91c-.35-1.12-.875-1.878-1.575-2.275-.677-.397-1.575-.595-2.695-.595-1.54 0-2.8.502-3.78 1.505-.957 1.003-1.598 2.45-1.925 4.34l-.35 2.1c-.07.42-.117.747-.14.98a7.132 7.132 0 0 0-.035.7c0 1.54.397 2.683 1.19 3.43.817.723 1.89 1.085 3.22 1.085.397 0 .793-.047 1.19-.14.42-.093.863-.292 1.33-.595.49-.303 1.015-.747 1.575-1.33.56-.583 1.202-1.365 1.925-2.345l1.96 1.155a23.64 23.64 0 0 1-1.715 2.45 9.455 9.455 0 0 1-1.89 1.75 7.182 7.182 0 0 1-2.17 1.05c-.77.257-1.622.385-2.555.385ZM219.453 177.095c-.746 0-1.271-.14-1.575-.42-.303-.28-.455-.607-.455-.98 0-.14.012-.292.035-.455.024-.163.059-.35.105-.56.094-.537.327-.945.7-1.225.374-.303.91-.455 1.61-.455.747 0 1.272.14 1.575.42.304.28.455.607.455.98 0 .14-.011.292-.035.455a7.22 7.22 0 0 1-.105.56c-.093.537-.326.957-.7 1.26-.373.28-.91.42-1.61.42Zm-2.38 22.505c-.886 0-1.563-.222-2.03-.665-.443-.467-.665-1.05-.665-1.75 0-.233.012-.467.035-.7.047-.257.094-.49.14-.7l2.38-12.32h-6.51l.385-2.345h9.31l-3.045 15.75.805.315 6.895-5.95 1.645 1.54-3.185 2.94c-.816.77-1.528 1.4-2.135 1.89a16.3 16.3 0 0 1-1.575 1.19c-.466.303-.898.513-1.295.63a3.836 3.836 0 0 1-1.155.175ZM237.255 199.6c-.957 0-1.634-.233-2.03-.7-.397-.467-.595-1.062-.595-1.785v-.56c.023-.21.058-.397.105-.56l3.92-20.37h-6.37l.385-2.345h9.205l-4.55 23.625.875.28 7.175-6.09 1.575 1.54-3.64 3.29c-.84.77-1.564 1.4-2.17 1.89-.607.467-1.144.84-1.61 1.12-.444.257-.852.432-1.225.525-.35.093-.7.14-1.05.14ZM249.946 199.18l3.01-18.06h2.52l-.455 2.835h.14c.42-.91.922-1.68 1.505-2.31.607-.63 1.412-.945 2.415-.945 1.027 0 1.762.327 2.205.98.443.653.63 1.47.56 2.45h.105c.467-1.05 1.05-1.878 1.75-2.485.7-.63 1.575-.945 2.625-.945 1.003 0 1.762.303 2.275.91.537.583.805 1.435.805 2.555 0 .327-.023.712-.07 1.155-.047.443-.105.875-.175 1.295l-2.1 12.565h-2.52l2.03-12.11c.07-.42.128-.817.175-1.19.047-.397.07-.723.07-.98 0-1.307-.513-1.96-1.54-1.96a2.1 2.1 0 0 0-1.295.42 4.86 4.86 0 0 0-.98.98c-.327.467-.595.98-.805 1.54a8.306 8.306 0 0 0-.455 1.61l-1.96 11.69h-2.52l2.03-12.11c.14-.84.21-1.528.21-2.065 0-.747-.128-1.272-.385-1.575-.233-.327-.595-.49-1.085-.49s-.933.14-1.33.42a3.68 3.68 0 0 0-1.015.98c-.327.467-.595.98-.805 1.54a8.306 8.306 0 0 0-.455 1.61l-1.96 11.69h-2.52ZM280.207 199.6c-2.286 0-4.048-.63-5.285-1.89-1.236-1.283-1.855-3.232-1.855-5.845 0-1.633.245-3.127.735-4.48.49-1.377 1.167-2.555 2.03-3.535a9.052 9.052 0 0 1 3.15-2.31c1.237-.56 2.579-.84 4.025-.84a9.02 9.02 0 0 1 2.45.315c.747.21 1.389.525 1.925.945.56.397.992.898 1.295 1.505.304.607.455 1.307.455 2.1 0 .63-.151 1.283-.455 1.96-.28.677-.886 1.307-1.82 1.89-.91.583-2.24 1.073-3.99 1.47-1.726.397-4.025.63-6.895.7a4.32 4.32 0 0 0-.035.525v.28c0 .63.059 1.237.175 1.82.117.583.339 1.108.665 1.575.327.443.782.805 1.365 1.085.584.257 1.354.385 2.31.385.654 0 1.237-.07 1.75-.21a5.883 5.883 0 0 0 1.505-.7c.49-.327.957-.735 1.4-1.225a19.73 19.73 0 0 0 1.47-1.855l1.925 1.19c-1.026 1.68-2.193 2.963-3.5 3.85-1.283.863-2.881 1.295-4.795 1.295Zm2.555-16.625c-1.82 0-3.301.548-4.445 1.645-1.143 1.097-1.843 2.672-2.1 4.725l-.035.35c2.194-.07 3.955-.233 5.285-.49 1.354-.28 2.38-.607 3.08-.98.724-.373 1.202-.782 1.435-1.225.234-.443.35-.887.35-1.33 0-.373-.07-.723-.21-1.05a1.912 1.912 0 0 0-.595-.84c-.28-.257-.653-.455-1.12-.595-.443-.14-.991-.21-1.645-.21ZM293.564 199.18l3.01-18.06h2.73l-.7 4.27h.14c.676-1.447 1.481-2.59 2.415-3.43.933-.84 2.135-1.26 3.605-1.26 1.516 0 2.706.455 3.57 1.365.886.91 1.33 2.193 1.33 3.85 0 .35-.024.735-.07 1.155-.024.397-.07.793-.14 1.19l-1.82 10.92h-2.73l1.785-10.675a12.404 12.404 0 0 0 .175-1.925c0-1.073-.245-1.913-.735-2.52-.49-.63-1.249-.945-2.275-.945-.794 0-1.505.175-2.135.525a6.386 6.386 0 0 0-1.68 1.435 95.83 95.83 0 0 1-.455.56 6.825 6.825 0 0 0-.595.91c-.21.35-.409.758-.595 1.225a6.8 6.8 0 0 0-.42 1.435l-1.68 9.975h-2.73ZM320.85 199.6c-.817 0-1.458-.222-1.925-.665-.443-.443-.665-1.085-.665-1.925v-.665c.023-.28.058-.513.105-.7l2.1-12.18h-5.215l.385-2.345h3.675c.607 0 1.05-.117 1.33-.35.303-.257.513-.688.63-1.295l.805-4.725h2.59l-1.085 6.37h7.455l-.385 2.345h-7.455l-2.24 13.37.7.42 7.875-5.25 1.365 1.75-3.955 2.8a65.247 65.247 0 0 1-2.135 1.47c-.583.373-1.12.677-1.61.91a6.3 6.3 0 0 1-1.26.49 3.618 3.618 0 0 1-1.085.175ZM343.166 199.6c-2.286 0-4.048-.63-5.285-1.89-1.236-1.283-1.855-3.232-1.855-5.845 0-1.633.245-3.127.735-4.48.49-1.377 1.167-2.555 2.03-3.535a9.052 9.052 0 0 1 3.15-2.31c1.237-.56 2.579-.84 4.025-.84a9.02 9.02 0 0 1 2.45.315c.747.21 1.389.525 1.925.945.56.397.992.898 1.295 1.505.304.607.455 1.307.455 2.1 0 .63-.151 1.283-.455 1.96-.28.677-.886 1.307-1.82 1.89-.91.583-2.24 1.073-3.99 1.47-1.726.397-4.025.63-6.895.7a4.32 4.32 0 0 0-.035.525v.28c0 .63.059 1.237.175 1.82.117.583.339 1.108.665 1.575.327.443.782.805 1.365 1.085.584.257 1.354.385 2.31.385.654 0 1.237-.07 1.75-.21a5.883 5.883 0 0 0 1.505-.7c.49-.327.957-.735 1.4-1.225a19.73 19.73 0 0 0 1.47-1.855l1.925 1.19c-1.026 1.68-2.193 2.963-3.5 3.85-1.283.863-2.881 1.295-4.795 1.295Zm2.555-16.625c-1.82 0-3.301.548-4.445 1.645-1.143 1.097-1.843 2.672-2.1 4.725l-.035.35c2.194-.07 3.955-.233 5.285-.49 1.354-.28 2.38-.607 3.08-.98.724-.373 1.202-.782 1.435-1.225.234-.443.35-.887.35-1.33 0-.373-.07-.723-.21-1.05a1.912 1.912 0 0 0-.595-.84c-.28-.257-.653-.455-1.12-.595-.443-.14-.991-.21-1.645-.21ZM387.344 177.095c-.747 0-1.272-.14-1.575-.42-.303-.28-.455-.607-.455-.98 0-.14.012-.292.035-.455a7.22 7.22 0 0 1 .105-.56c.093-.537.327-.945.7-1.225.373-.303.91-.455 1.61-.455.747 0 1.272.14 1.575.42.303.28.455.607.455.98 0 .14-.012.292-.035.455a7.22 7.22 0 0 1-.105.56c-.093.537-.327.957-.7 1.26-.373.28-.91.42-1.61.42Zm-2.38 22.505c-.887 0-1.563-.222-2.03-.665-.443-.467-.665-1.05-.665-1.75 0-.233.012-.467.035-.7.047-.257.093-.49.14-.7l2.38-12.32h-6.51l.385-2.345h9.31l-3.045 15.75.805.315 6.895-5.95 1.645 1.54-3.185 2.94c-.817.77-1.528 1.4-2.135 1.89a16.3 16.3 0 0 1-1.575 1.19c-.467.303-.898.513-1.295.63a3.836 3.836 0 0 1-1.155.175ZM405.145 199.6c-.956 0-1.633-.233-2.03-.7-.396-.467-.595-1.062-.595-1.785v-.56c.024-.21.059-.397.105-.56l3.92-20.37h-6.37l.385-2.345h9.205l-4.55 23.625.875.28 7.175-6.09 1.575 1.54-3.64 3.29c-.84.77-1.563 1.4-2.17 1.89-.606.467-1.143.84-1.61 1.12-.443.257-.851.432-1.225.525-.35.093-.7.14-1.05.14ZM452.508 194.91h-.105c-.7 1.423-1.552 2.567-2.555 3.43-.98.84-2.263 1.26-3.85 1.26-1.82 0-3.22-.583-4.2-1.75-.957-1.167-1.435-2.917-1.435-5.25 0-1.213.14-2.508.42-3.885.303-1.4.782-2.695 1.435-3.885a8.944 8.944 0 0 1 2.66-2.94c1.097-.793 2.438-1.19 4.025-1.19 1.33 0 2.438.303 3.325.91.91.583 1.563 1.47 1.96 2.66h.105l1.855-10.99h2.73l-4.34 25.9h-2.73l.7-4.27Zm-5.565 2.275c.747 0 1.482-.152 2.205-.455.723-.327 1.4-.84 2.03-1.54a7.993 7.993 0 0 0 1.225-1.82c.373-.7.63-1.47.77-2.31l.665-3.99c.21-1.26-.093-2.228-.91-2.905-.793-.7-1.867-1.05-3.22-1.05-1.75 0-3.127.525-4.13 1.575-.98 1.05-1.61 2.415-1.89 4.095l-.42 2.52c-.047.327-.082.618-.105.875a7.132 7.132 0 0 0-.035.7c0 1.353.315 2.415.945 3.185.653.747 1.61 1.12 2.87 1.12ZM471.289 177.095c-.746 0-1.271-.14-1.575-.42-.303-.28-.455-.607-.455-.98 0-.14.012-.292.035-.455.024-.163.059-.35.105-.56.094-.537.327-.945.7-1.225.374-.303.91-.455 1.61-.455.747 0 1.272.14 1.575.42.304.28.455.607.455.98 0 .14-.011.292-.035.455a7.22 7.22 0 0 1-.105.56c-.093.537-.326.957-.7 1.26-.373.28-.91.42-1.61.42Zm-2.38 22.505c-.886 0-1.563-.222-2.03-.665-.443-.467-.665-1.05-.665-1.75 0-.233.012-.467.035-.7.047-.257.094-.49.14-.7l2.38-12.32h-6.51l.385-2.345h9.31l-3.045 15.75.805.315 6.895-5.95 1.645 1.54-3.185 2.94c-.816.77-1.528 1.4-2.135 1.89a16.3 16.3 0 0 1-1.575 1.19c-.466.303-.898.513-1.295.63a3.836 3.836 0 0 1-1.155.175ZM487.796 206.6c-2.894 0-5.005-.828-6.335-2.485l1.89-1.82a4.541 4.541 0 0 0 1.82 1.4c.746.327 1.68.49 2.8.49 1.656 0 2.975-.42 3.955-1.26.98-.84 1.633-2.263 1.96-4.27l.735-4.34h-.14c-.677 1.447-1.529 2.59-2.555 3.43-1.004.84-2.299 1.26-3.885 1.26-1.867 0-3.279-.583-4.235-1.75-.957-1.19-1.435-2.893-1.435-5.11 0-1.167.151-2.415.455-3.745.303-1.353.793-2.59 1.47-3.71a8.974 8.974 0 0 1 2.625-2.835c1.073-.77 2.391-1.155 3.955-1.155 1.33 0 2.438.303 3.325.91.91.583 1.563 1.47 1.96 2.66h.105l.525-3.15h2.73l-3.01 18.06c-.467 2.66-1.47 4.562-3.01 5.705-1.54 1.143-3.442 1.715-5.705 1.715Zm1.19-10.01c.746 0 1.481-.152 2.205-.455.723-.303 1.411-.817 2.065-1.54.326-.373.7-.898 1.12-1.575.42-.7.711-1.54.875-2.52l.56-3.43c.21-1.26-.094-2.228-.91-2.905-.794-.7-1.867-1.05-3.22-1.05-1.704 0-3.069.513-4.095 1.54-1.004 1.027-1.645 2.38-1.925 4.06l-.315 1.89a16.6 16.6 0 0 1-.14.84c-.024.21-.035.443-.035.7 0 1.447.315 2.555.945 3.325.653.747 1.61 1.12 2.87 1.12ZM513.262 177.095c-.747 0-1.272-.14-1.575-.42-.303-.28-.455-.607-.455-.98 0-.14.012-.292.035-.455a7.22 7.22 0 0 1 .105-.56c.093-.537.327-.945.7-1.225.373-.303.91-.455 1.61-.455.747 0 1.272.14 1.575.42.303.28.455.607.455.98 0 .14-.012.292-.035.455a7.22 7.22 0 0 1-.105.56c-.093.537-.327.957-.7 1.26-.373.28-.91.42-1.61.42Zm-2.38 22.505c-.887 0-1.563-.222-2.03-.665-.443-.467-.665-1.05-.665-1.75 0-.233.012-.467.035-.7.047-.257.093-.49.14-.7l2.38-12.32h-6.51l.385-2.345h9.31l-3.045 15.75.805.315 6.895-5.95 1.645 1.54-3.185 2.94c-.817.77-1.528 1.4-2.135 1.89a16.3 16.3 0 0 1-1.575 1.19c-.467.303-.898.513-1.295.63a3.836 3.836 0 0 1-1.155.175ZM530.713 199.6c-.816 0-1.458-.222-1.925-.665-.443-.443-.665-1.085-.665-1.925v-.665c.024-.28.059-.513.105-.7l2.1-12.18h-5.215l.385-2.345h3.675c.607 0 1.05-.117 1.33-.35.304-.257.514-.688.63-1.295l.805-4.725h2.59l-1.085 6.37h7.455l-.385 2.345h-7.455l-2.24 13.37.7.42 7.875-5.25 1.365 1.75-3.955 2.8a64.183 64.183 0 0 1-2.135 1.47c-.583.373-1.12.677-1.61.91a6.254 6.254 0 0 1-1.26.49 3.618 3.618 0 0 1-1.085.175ZM550.79 199.6c-1.774 0-3.139-.583-4.095-1.75-.934-1.167-1.4-2.917-1.4-5.25 0-1.213.14-2.508.42-3.885.303-1.4.781-2.695 1.435-3.885a8.733 8.733 0 0 1 2.59-2.94c1.073-.793 2.391-1.19 3.955-1.19 1.306 0 2.391.303 3.255.91.863.583 1.493 1.47 1.89 2.66h.105l.525-3.15h2.73l-2.59 15.61h2.485l-.42 2.45h-2.03c-1.12 0-1.89-.292-2.31-.875-.397-.583-.525-1.283-.385-2.1l.21-1.295h-.105c-.7 1.423-1.529 2.567-2.485 3.43-.957.84-2.217 1.26-3.78 1.26Zm.945-2.415c.746 0 1.47-.152 2.17-.455.723-.327 1.388-.84 1.995-1.54a7.932 7.932 0 0 0 1.19-1.855c.35-.7.595-1.458.735-2.275l.665-3.99c.21-1.26-.082-2.228-.875-2.905-.77-.7-1.82-1.05-3.15-1.05-1.68 0-3.01.525-3.99 1.575-.957 1.05-1.575 2.415-1.855 4.095l-.42 2.52c-.047.327-.082.618-.105.875a6.836 6.836 0 0 0-.035.7c0 1.353.303 2.415.91 3.185.63.747 1.551 1.12 2.765 1.12ZM573.036 199.6c-.957 0-1.633-.233-2.03-.7-.397-.467-.595-1.062-.595-1.785v-.56c.023-.21.058-.397.105-.56l3.92-20.37h-6.37l.385-2.345h9.205l-4.55 23.625.875.28 7.175-6.09 1.575 1.54-3.64 3.29c-.84.77-1.563 1.4-2.17 1.89-.607.467-1.143.84-1.61 1.12-.443.257-.852.432-1.225.525-.35.093-.7.14-1.05.14ZM595.002 199.6c-2.286 0-4.048-.63-5.285-1.89-1.237-1.283-1.855-3.232-1.855-5.845 0-1.633.245-3.127.735-4.48.49-1.377 1.167-2.555 2.03-3.535a9.052 9.052 0 0 1 3.15-2.31c1.237-.56 2.579-.84 4.025-.84a9.02 9.02 0 0 1 2.45.315c.747.21 1.389.525 1.925.945.56.397.992.898 1.295 1.505.304.607.455 1.307.455 2.1 0 .63-.151 1.283-.455 1.96-.28.677-.887 1.307-1.82 1.89-.91.583-2.24 1.073-3.99 1.47-1.726.397-4.025.63-6.895.7a4.32 4.32 0 0 0-.035.525v.28c0 .63.058 1.237.175 1.82.117.583.339 1.108.665 1.575.327.443.782.805 1.365 1.085.584.257 1.354.385 2.31.385.654 0 1.237-.07 1.75-.21a5.883 5.883 0 0 0 1.505-.7c.49-.327.957-.735 1.4-1.225a19.73 19.73 0 0 0 1.47-1.855l1.925 1.19c-1.026 1.68-2.193 2.963-3.5 3.85-1.283.863-2.881 1.295-4.795 1.295Zm2.555-16.625c-1.82 0-3.301.548-4.445 1.645-1.143 1.097-1.843 2.672-2.1 4.725l-.035.35c2.194-.07 3.955-.233 5.285-.49 1.354-.28 2.38-.607 3.08-.98.723-.373 1.202-.782 1.435-1.225.233-.443.35-.887.35-1.33 0-.373-.07-.723-.21-1.05a1.912 1.912 0 0 0-.595-.84c-.28-.257-.653-.455-1.12-.595-.443-.14-.991-.21-1.645-.21ZM635.645 199.6c-.817 0-1.458-.222-1.925-.665-.443-.443-.665-1.085-.665-1.925v-.665c.023-.28.058-.513.105-.7l2.1-12.18h-5.215l.385-2.345h3.675c.607 0 1.05-.117 1.33-.35.303-.257.513-.688.63-1.295l.805-4.725h2.59l-1.085 6.37h7.455l-.385 2.345h-7.455l-2.24 13.37.7.42 7.875-5.25 1.365 1.75-3.955 2.8a65.247 65.247 0 0 1-2.135 1.47c-.583.373-1.12.677-1.61.91a6.3 6.3 0 0 1-1.26.49 3.618 3.618 0 0 1-1.085.175ZM657.961 199.6c-2.286 0-4.048-.63-5.285-1.89-1.237-1.283-1.855-3.232-1.855-5.845 0-1.633.245-3.127.735-4.48.49-1.377 1.167-2.555 2.03-3.535a9.052 9.052 0 0 1 3.15-2.31c1.237-.56 2.579-.84 4.025-.84a9.02 9.02 0 0 1 2.45.315c.747.21 1.389.525 1.925.945.56.397.992.898 1.295 1.505.303.607.455 1.307.455 2.1 0 .63-.152 1.283-.455 1.96-.28.677-.887 1.307-1.82 1.89-.91.583-2.24 1.073-3.99 1.47-1.727.397-4.025.63-6.895.7a4.32 4.32 0 0 0-.035.525v.28c0 .63.058 1.237.175 1.82.117.583.339 1.108.665 1.575.327.443.782.805 1.365 1.085.584.257 1.354.385 2.31.385.654 0 1.237-.07 1.75-.21a5.883 5.883 0 0 0 1.505-.7c.49-.327.957-.735 1.4-1.225a19.73 19.73 0 0 0 1.47-1.855l1.925 1.19c-1.027 1.68-2.193 2.963-3.5 3.85-1.283.863-2.881 1.295-4.795 1.295Zm2.555-16.625c-1.82 0-3.301.548-4.445 1.645-1.143 1.097-1.843 2.672-2.1 4.725l-.035.35c2.193-.07 3.955-.233 5.285-.49 1.354-.28 2.38-.607 3.08-.98.723-.373 1.202-.782 1.435-1.225.233-.443.35-.887.35-1.33 0-.373-.07-.723-.21-1.05a1.92 1.92 0 0 0-.595-.84c-.28-.257-.653-.455-1.12-.595-.443-.14-.991-.21-1.645-.21ZM675.482 199.18l2.625-15.715h-5.075l.385-2.345h7.805l-.805 4.83h.176c.303-.723.653-1.377 1.05-1.96a6.684 6.684 0 0 1 1.365-1.54 6.195 6.195 0 0 1 1.82-.98c.676-.233 1.446-.35 2.31-.35h2.729l-.455 2.73h-3.079c-1.05 0-1.925.152-2.625.455-.7.28-1.319.735-1.856 1.365-.116.14-.28.338-.49.595a8.089 8.089 0 0 0-.594.875c-.21.35-.409.747-.596 1.19a8.69 8.69 0 0 0-.385 1.435l-1.574 9.415h-2.731ZM696.469 199.18l2.625-15.715h-5.075l.385-2.345h7.805l-.805 4.83h.175c.303-.723.653-1.377 1.05-1.96a6.731 6.731 0 0 1 1.365-1.54 6.207 6.207 0 0 1 1.82-.98c.677-.233 1.447-.35 2.31-.35h2.73l-.455 2.73h-3.08c-1.05 0-1.925.152-2.625.455-.7.28-1.319.735-1.855 1.365-.117.14-.28.338-.49.595a7.94 7.94 0 0 0-.595.875c-.21.35-.409.747-.595 1.19a8.497 8.497 0 0 0-.385 1.435l-1.575 9.415h-2.73ZM720.92 199.6c-2.287 0-4.048-.63-5.285-1.89-1.237-1.283-1.855-3.232-1.855-5.845 0-1.633.245-3.127.735-4.48.49-1.377 1.167-2.555 2.03-3.535a9.052 9.052 0 0 1 3.15-2.31c1.237-.56 2.578-.84 4.025-.84.887 0 1.703.105 2.45.315.747.21 1.388.525 1.925.945.56.397.992.898 1.295 1.505.303.607.455 1.307.455 2.1 0 .63-.152 1.283-.455 1.96-.28.677-.887 1.307-1.82 1.89-.91.583-2.24 1.073-3.99 1.47-1.727.397-4.025.63-6.895.7a4.32 4.32 0 0 0-.035.525v.28c0 .63.058 1.237.175 1.82.117.583.339 1.108.665 1.575.327.443.782.805 1.365 1.085.583.257 1.353.385 2.31.385.653 0 1.237-.07 1.75-.21a5.899 5.899 0 0 0 1.505-.7c.49-.327.957-.735 1.4-1.225a19.73 19.73 0 0 0 1.47-1.855l1.925 1.19c-1.027 1.68-2.193 2.963-3.5 3.85-1.283.863-2.882 1.295-4.795 1.295Zm2.555-16.625c-1.82 0-3.302.548-4.445 1.645-1.143 1.097-1.843 2.672-2.1 4.725l-.035.35c2.193-.07 3.955-.233 5.285-.49 1.354-.28 2.38-.607 3.08-.98.723-.373 1.202-.782 1.435-1.225.233-.443.35-.887.35-1.33 0-.373-.07-.723-.21-1.05a1.92 1.92 0 0 0-.595-.84c-.28-.257-.653-.455-1.12-.595-.443-.14-.992-.21-1.645-.21ZM741.591 199.6c-1.75 0-3.278-.292-4.585-.875-1.283-.583-2.321-1.423-3.115-2.52l2.031-1.61c.7.887 1.516 1.563 2.449 2.03.934.443 2.089.665 3.465.665 1.61 0 2.87-.303 3.78-.91.91-.607 1.366-1.458 1.366-2.555 0-.84-.257-1.412-.771-1.715-.49-.327-1.108-.548-1.854-.665l-2.625-.385a19.393 19.393 0 0 1-1.961-.385 6.114 6.114 0 0 1-1.715-.805 4.465 4.465 0 0 1-1.225-1.33c-.303-.56-.455-1.26-.455-2.1 0-.957.199-1.785.595-2.485a5.35 5.35 0 0 1 1.68-1.785c.7-.49 1.517-.852 2.451-1.085a11.294 11.294 0 0 1 3.01-.385c1.586 0 2.94.245 4.06.735 1.12.49 2.018 1.167 2.695 2.03l-1.926 1.68a4.624 4.624 0 0 0-.665-.735c-.256-.257-.595-.49-1.015-.7-.396-.21-.886-.373-1.469-.49-.56-.14-1.225-.21-1.995-.21-1.564 0-2.754.292-3.57.875-.794.583-1.191 1.365-1.191 2.345 0 .443.07.805.21 1.085.164.28.374.513.63.7.257.163.549.292.875.385.35.07.712.14 1.085.21l2.555.42c.584.093 1.179.222 1.786.385.63.14 1.201.373 1.714.7.514.303.934.735 1.26 1.295.35.537.526 1.248.526 2.135 0 .933-.199 1.773-.596 2.52-.373.747-.921 1.388-1.645 1.925-.7.513-1.551.91-2.555 1.19-.98.28-2.076.42-3.29.42ZM761.563 199.6c-.817 0-1.459-.222-1.925-.665-.444-.443-.665-1.085-.665-1.925v-.665c.023-.28.058-.513.105-.7l2.1-12.18h-5.215l.385-2.345h3.675c.606 0 1.05-.117 1.33-.35.303-.257.513-.688.63-1.295l.805-4.725h2.59l-1.085 6.37h7.455l-.385 2.345h-7.455l-2.24 13.37.7.42 7.875-5.25 1.365 1.75-3.955 2.8a66.348 66.348 0 0 1-2.135 1.47c-.584.373-1.12.677-1.61.91a6.3 6.3 0 0 1-1.26.49 3.623 3.623 0 0 1-1.085.175ZM780.414 199.18l2.625-15.715h-5.075l.385-2.345h7.805l-.805 4.83h.175c.304-.723.653-1.377 1.05-1.96a6.731 6.731 0 0 1 1.365-1.54 6.207 6.207 0 0 1 1.82-.98c.677-.233 1.447-.35 2.31-.35h2.73l-.455 2.73h-3.08c-1.05 0-1.925.152-2.625.455-.7.28-1.318.735-1.855 1.365-.117.14-.28.338-.49.595a7.94 7.94 0 0 0-.595.875c-.21.35-.408.747-.595 1.19a8.592 8.592 0 0 0-.385 1.435l-1.575 9.415h-2.73ZM804.865 199.6c-2.286 0-4.048-.63-5.285-1.89-1.236-1.283-1.855-3.232-1.855-5.845 0-1.633.245-3.127.735-4.48.49-1.377 1.167-2.555 2.03-3.535a9.052 9.052 0 0 1 3.15-2.31c1.237-.56 2.579-.84 4.025-.84a9.02 9.02 0 0 1 2.45.315c.747.21 1.389.525 1.925.945.56.397.992.898 1.295 1.505.304.607.455 1.307.455 2.1 0 .63-.151 1.283-.455 1.96-.28.677-.886 1.307-1.82 1.89-.91.583-2.24 1.073-3.99 1.47-1.726.397-4.025.63-6.895.7a4.32 4.32 0 0 0-.035.525v.28c0 .63.059 1.237.175 1.82.117.583.339 1.108.665 1.575.327.443.782.805 1.365 1.085.584.257 1.354.385 2.31.385.654 0 1.237-.07 1.75-.21a5.883 5.883 0 0 0 1.505-.7c.49-.327.957-.735 1.4-1.225a19.73 19.73 0 0 0 1.47-1.855l1.925 1.19c-1.026 1.68-2.193 2.963-3.5 3.85-1.283.863-2.881 1.295-4.795 1.295Zm2.555-16.625c-1.82 0-3.301.548-4.445 1.645-1.143 1.097-1.843 2.672-2.1 4.725l-.035.35c2.194-.07 3.955-.233 5.285-.49 1.354-.28 2.38-.607 3.08-.98.724-.373 1.202-.782 1.435-1.225.234-.443.35-.887.35-1.33 0-.373-.07-.723-.21-1.05a1.912 1.912 0 0 0-.595-.84c-.28-.257-.653-.455-1.12-.595-.443-.14-.991-.21-1.645-.21ZM849.043 177.095c-.747 0-1.272-.14-1.575-.42-.303-.28-.455-.607-.455-.98 0-.14.012-.292.035-.455a7.22 7.22 0 0 1 .105-.56c.093-.537.327-.945.7-1.225.373-.303.91-.455 1.61-.455.747 0 1.272.14 1.575.42.303.28.455.607.455.98 0 .14-.012.292-.035.455a7.22 7.22 0 0 1-.105.56c-.093.537-.327.957-.7 1.26-.373.28-.91.42-1.61.42Zm-2.38 22.505c-.887 0-1.563-.222-2.03-.665-.443-.467-.665-1.05-.665-1.75 0-.233.012-.467.035-.7.047-.257.093-.49.14-.7l2.38-12.32h-6.51l.385-2.345h9.31l-3.045 15.75.805.315 6.895-5.95 1.645 1.54-3.185 2.94c-.817.77-1.528 1.4-2.135 1.89a16.3 16.3 0 0 1-1.575 1.19c-.467.303-.898.513-1.295.63a3.836 3.836 0 0 1-1.155.175ZM866.494 199.6c-.816 0-1.458-.222-1.925-.665-.443-.443-.665-1.085-.665-1.925v-.665c.024-.28.059-.513.105-.7l2.1-12.18h-5.215l.385-2.345h3.675c.607 0 1.05-.117 1.33-.35.304-.257.514-.688.63-1.295l.805-4.725h2.59l-1.085 6.37h7.455l-.385 2.345h-7.455l-2.24 13.37.7.42 7.875-5.25 1.365 1.75-3.955 2.8a64.183 64.183 0 0 1-2.135 1.47c-.583.373-1.12.677-1.61.91a6.254 6.254 0 0 1-1.26.49 3.618 3.618 0 0 1-1.085.175ZM886.571 199.6c-1.774 0-3.139-.583-4.095-1.75-.934-1.167-1.4-2.917-1.4-5.25 0-1.213.14-2.508.42-3.885.303-1.4.781-2.695 1.435-3.885a8.733 8.733 0 0 1 2.59-2.94c1.073-.793 2.391-1.19 3.955-1.19 1.306 0 2.391.303 3.255.91.863.583 1.493 1.47 1.89 2.66h.105l.525-3.15h2.73l-2.59 15.61h2.485l-.42 2.45h-2.03c-1.12 0-1.89-.292-2.31-.875-.397-.583-.525-1.283-.385-2.1l.21-1.295h-.105c-.7 1.423-1.529 2.567-2.485 3.43-.957.84-2.217 1.26-3.78 1.26Zm.945-2.415c.746 0 1.47-.152 2.17-.455.723-.327 1.388-.84 1.995-1.54a7.932 7.932 0 0 0 1.19-1.855c.35-.7.595-1.458.735-2.275l.665-3.99c.21-1.26-.082-2.228-.875-2.905-.77-.7-1.82-1.05-3.15-1.05-1.68 0-3.01.525-3.99 1.575-.957 1.05-1.575 2.415-1.855 4.095l-.42 2.52c-.047.327-.082.618-.105.875a6.836 6.836 0 0 0-.035.7c0 1.353.303 2.415.91 3.185.63.747 1.551 1.12 2.765 1.12ZM908.817 199.6c-.957 0-1.633-.233-2.03-.7-.397-.467-.595-1.062-.595-1.785v-.56c.023-.21.058-.397.105-.56l3.92-20.37h-6.37l.385-2.345h9.205l-4.55 23.625.875.28 7.175-6.09 1.575 1.54-3.64 3.29c-.84.77-1.563 1.4-2.17 1.89-.607.467-1.143.84-1.61 1.12-.443.257-.852.432-1.225.525-.35.093-.7.14-1.05.14ZM932.988 177.095c-.746 0-1.271-.14-1.575-.42-.303-.28-.455-.607-.455-.98 0-.14.012-.292.035-.455.024-.163.059-.35.105-.56.094-.537.327-.945.7-1.225.374-.303.91-.455 1.61-.455.747 0 1.272.14 1.575.42.304.28.455.607.455.98 0 .14-.011.292-.035.455a7.22 7.22 0 0 1-.105.56c-.093.537-.326.957-.7 1.26-.373.28-.91.42-1.61.42Zm-2.38 22.505c-.886 0-1.563-.222-2.03-.665-.443-.467-.665-1.05-.665-1.75 0-.233.012-.467.035-.7.047-.257.094-.49.14-.7l2.38-12.32h-6.51l.385-2.345h9.31l-3.045 15.75.805.315 6.895-5.95 1.645 1.54-3.185 2.94c-.816.77-1.528 1.4-2.135 1.89a16.3 16.3 0 0 1-1.575 1.19c-.466.303-.898.513-1.295.63a3.836 3.836 0 0 1-1.155.175ZM949.53 199.6c-1.774 0-3.139-.583-4.095-1.75-.934-1.167-1.4-2.917-1.4-5.25 0-1.213.14-2.508.42-3.885.303-1.4.781-2.695 1.435-3.885a8.733 8.733 0 0 1 2.59-2.94c1.073-.793 2.391-1.19 3.955-1.19 1.306 0 2.391.303 3.255.91.863.583 1.493 1.47 1.89 2.66h.105l.525-3.15h2.73l-2.59 15.61h2.485l-.42 2.45h-2.03c-1.12 0-1.89-.292-2.31-.875-.397-.583-.525-1.283-.385-2.1l.21-1.295h-.105c-.7 1.423-1.529 2.567-2.485 3.43-.957.84-2.217 1.26-3.78 1.26Zm.945-2.415c.746 0 1.47-.152 2.17-.455.723-.327 1.388-.84 1.995-1.54a7.932 7.932 0 0 0 1.19-1.855c.35-.7.595-1.458.735-2.275l.665-3.99c.21-1.26-.082-2.228-.875-2.905-.77-.7-1.82-1.05-3.15-1.05-1.68 0-3.01.525-3.99 1.575-.957 1.05-1.575 2.415-1.855 4.095l-.42 2.52c-.047.327-.082.618-.105.875a6.836 6.836 0 0 0-.035.7c0 1.353.303 2.415.91 3.185.63.747 1.551 1.12 2.765 1.12ZM965.126 199.18l3.01-18.06h2.73l-.7 4.27h.14c.677-1.447 1.482-2.59 2.415-3.43.933-.84 2.135-1.26 3.605-1.26 1.517 0 2.707.455 3.57 1.365.887.91 1.33 2.193 1.33 3.85 0 .35-.023.735-.07 1.155-.023.397-.07.793-.14 1.19l-1.82 10.92h-2.73l1.785-10.675a12.053 12.053 0 0 0 .175-1.925c0-1.073-.245-1.913-.735-2.52-.49-.63-1.248-.945-2.275-.945-.793 0-1.505.175-2.135.525a6.386 6.386 0 0 0-1.68 1.435c-.093.117-.245.303-.455.56a6.825 6.825 0 0 0-.595.91 8.6 8.6 0 0 0-.595 1.225 6.8 6.8 0 0 0-.42 1.435l-1.68 9.975h-2.73ZM993.322 199.6c-1.166 0-2.193-.187-3.08-.56a6.126 6.126 0 0 1-2.17-1.54c-.583-.677-1.026-1.482-1.33-2.415-.303-.957-.455-1.995-.455-3.115 0-1.727.245-3.278.735-4.655.49-1.4 1.155-2.59 1.995-3.57a8.771 8.771 0 0 1 3.01-2.24c1.144-.537 2.38-.805 3.71-.805 1.167 0 2.194.187 3.08.56.887.373 1.623.898 2.203 1.575.61.653 1.05 1.458 1.33 2.415.31.933.46 1.96.46 3.08 0 1.727-.25 3.29-.74 4.69-.49 1.377-1.16 2.555-2.03 3.535a8.696 8.696 0 0 1-3.008 2.275c-1.143.513-2.38.77-3.71.77Zm.14-2.38c1.704 0 3.057-.513 4.06-1.54 1.027-1.05 1.692-2.473 1.995-4.27l.35-2.1c.07-.42.117-.77.143-1.05.02-.28.03-.525.03-.735 0-1.54-.394-2.66-1.188-3.36-.793-.723-1.866-1.085-3.22-1.085-1.703 0-3.068.525-4.095 1.575-1.003 1.027-1.656 2.438-1.96 4.235l-.35 2.1c-.07.42-.116.77-.14 1.05-.023.28-.035.525-.035.735 0 1.54.397 2.672 1.19 3.395.794.7 1.867 1.05 3.22 1.05ZM1013.33 194.455h4.44l-5.56 9.66h-2.31l3.43-9.66ZM1049.07 199.18l3.01-18.06h2.73l-.7 4.27h.14c.68-1.447 1.48-2.59 2.42-3.43.93-.84 2.13-1.26 3.6-1.26 1.52 0 2.71.455 3.57 1.365.89.91 1.33 2.193 1.33 3.85 0 .35-.02.735-.07 1.155-.02.397-.07.793-.14 1.19l-1.82 10.92h-2.73l1.79-10.675c.07-.42.11-.793.14-1.12.02-.35.03-.618.03-.805 0-1.073-.24-1.913-.73-2.52-.49-.63-1.25-.945-2.28-.945-.79 0-1.5.175-2.13.525-.61.35-1.17.828-1.68 1.435-.1.117-.25.303-.46.56-.19.233-.38.537-.59.91-.21.35-.41.758-.6 1.225-.19.443-.33.922-.42 1.435l-1.68 9.975h-2.73ZM1075.45 199.6c-1.78 0-3.14-.583-4.1-1.75-.93-1.167-1.4-2.917-1.4-5.25 0-1.213.14-2.508.42-3.885.31-1.4.78-2.695 1.44-3.885a8.637 8.637 0 0 1 2.59-2.94c1.07-.793 2.39-1.19 3.95-1.19 1.31 0 2.39.303 3.26.91.86.583 1.49 1.47 1.89 2.66h.1l.53-3.15h2.73l-2.59 15.61h2.48l-.42 2.45h-2.03c-1.12 0-1.89-.292-2.31-.875-.39-.583-.52-1.283-.38-2.1l.21-1.295h-.11c-.7 1.423-1.53 2.567-2.48 3.43-.96.84-2.22 1.26-3.78 1.26Zm.94-2.415c.75 0 1.47-.152 2.17-.455.73-.327 1.39-.84 2-1.54.46-.537.86-1.155 1.19-1.855.35-.7.59-1.458.73-2.275l.67-3.99c.21-1.26-.08-2.228-.88-2.905-.77-.7-1.82-1.05-3.15-1.05-1.68 0-3.01.525-3.99 1.575-.95 1.05-1.57 2.415-1.85 4.095l-.42 2.52c-.05.327-.08.618-.11.875-.02.233-.03.467-.03.7 0 1.353.3 2.415.91 3.185.63.747 1.55 1.12 2.76 1.12ZM1103.85 199.53c-.49 0-1.01-.058-1.57-.175-.56-.093-1.21-.268-1.96-.525l-6.27-2.1-.17.14-.35 2.31h-2.77l.39-2.73 12.53-11.515c-1.45-.723-2.61-1.225-3.5-1.505-.86-.28-1.62-.42-2.28-.42-.67 0-1.22.117-1.64.35-.4.233-.71.548-.95.945-.21.397-.35.852-.42 1.365s-.1 1.038-.1 1.575h-2.24v-.42c0-1.983.47-3.5 1.4-4.55.96-1.05 2.31-1.575 4.06-1.575.98 0 1.97.187 2.97.56 1.03.373 2.22.968 3.57 1.785l.7.42.18-.14.35-2.205h2.76l-.38 2.66-12.53 11.48 8.92 2.065.39-.385-1.09-4.76 2-.7.56 1.4c.26.607.47 1.237.63 1.89.19.63.28 1.213.28 1.75 0 .77-.3 1.47-.91 2.1-.61.607-1.46.91-2.56.91ZM1121.87 177.095c-.75 0-1.28-.14-1.58-.42-.3-.28-.45-.607-.45-.98 0-.14.01-.292.03-.455.02-.163.06-.35.11-.56.09-.537.32-.945.7-1.225.37-.303.91-.455 1.61-.455.74 0 1.27.14 1.57.42.3.28.46.607.46.98 0 .14-.02.292-.04.455-.02.163-.06.35-.1.56-.1.537-.33.957-.7 1.26-.38.28-.91.42-1.61.42Zm-2.38 22.505c-.89 0-1.57-.222-2.03-.665-.45-.467-.67-1.05-.67-1.75 0-.233.01-.467.04-.7.04-.257.09-.49.14-.7l2.38-12.32h-6.51l.38-2.345h9.31l-3.04 15.75.8.315 6.9-5.95 1.64 1.54-3.18 2.94c-.82.77-1.53 1.4-2.14 1.89-.58.49-1.11.887-1.57 1.19-.47.303-.9.513-1.3.63-.37.117-.76.175-1.15.175ZM1140.23 199.6c-1.17 0-2.2-.187-3.08-.56a6.03 6.03 0 0 1-2.17-1.54c-.59-.677-1.03-1.482-1.33-2.415-.31-.957-.46-1.995-.46-3.115 0-1.727.25-3.278.74-4.655.49-1.4 1.15-2.59 1.99-3.57.87-.98 1.87-1.727 3.01-2.24a8.638 8.638 0 0 1 3.71-.805c1.17 0 2.2.187 3.08.56.89.373 1.62.898 2.21 1.575.6.653 1.05 1.458 1.33 2.415.3.933.45 1.96.45 3.08 0 1.727-.24 3.29-.73 4.69-.49 1.377-1.17 2.555-2.03 3.535a8.788 8.788 0 0 1-3.01 2.275 8.98 8.98 0 0 1-3.71.77Zm.14-2.38c1.7 0 3.05-.513 4.06-1.54 1.02-1.05 1.69-2.473 1.99-4.27l.35-2.1c.07-.42.12-.77.14-1.05.03-.28.04-.525.04-.735 0-1.54-.4-2.66-1.19-3.36-.8-.723-1.87-1.085-3.22-1.085-1.71 0-3.07.525-4.1 1.575-1 1.027-1.65 2.438-1.96 4.235l-.35 2.1c-.07.42-.11.77-.14 1.05-.02.28-.03.525-.03.735 0 1.54.39 2.672 1.19 3.395.79.7 1.86 1.05 3.22 1.05ZM1154 199.18l3.01-18.06h2.73l-.7 4.27h.14c.68-1.447 1.48-2.59 2.42-3.43.93-.84 2.13-1.26 3.6-1.26 1.52 0 2.71.455 3.57 1.365.89.91 1.33 2.193 1.33 3.85 0 .35-.02.735-.07 1.155-.02.397-.07.793-.14 1.19l-1.82 10.92h-2.73l1.79-10.675c.07-.42.11-.793.14-1.12.02-.35.03-.618.03-.805 0-1.073-.24-1.913-.73-2.52-.49-.63-1.25-.945-2.28-.945-.79 0-1.5.175-2.13.525-.61.35-1.17.828-1.68 1.435-.1.117-.25.303-.46.56-.18.233-.38.537-.59.91-.21.35-.41.758-.6 1.225-.18.443-.32.922-.42 1.435l-1.68 9.975H1154ZM1180.38 199.6c-1.77 0-3.14-.583-4.1-1.75-.93-1.167-1.4-2.917-1.4-5.25 0-1.213.14-2.508.42-3.885.31-1.4.79-2.695 1.44-3.885a8.743 8.743 0 0 1 2.59-2.94c1.07-.793 2.39-1.19 3.95-1.19 1.31 0 2.4.303 3.26.91.86.583 1.49 1.47 1.89 2.66h.1l.53-3.15h2.73l-2.59 15.61h2.48l-.42 2.45h-2.03c-1.12 0-1.89-.292-2.31-.875-.39-.583-.52-1.283-.38-2.1l.21-1.295h-.11c-.7 1.423-1.52 2.567-2.48 3.43-.96.84-2.22 1.26-3.78 1.26Zm.94-2.415c.75 0 1.47-.152 2.17-.455.73-.327 1.39-.84 2-1.54a7.9 7.9 0 0 0 1.19-1.855c.35-.7.59-1.458.73-2.275l.67-3.99c.21-1.26-.08-2.228-.88-2.905-.77-.7-1.82-1.05-3.15-1.05-1.68 0-3.01.525-3.99 1.575-.95 1.05-1.57 2.415-1.85 4.095l-.42 2.52c-.05.327-.08.618-.11.875-.02.233-.03.467-.03.7 0 1.353.3 2.415.91 3.185.63.747 1.55 1.12 2.76 1.12ZM1202.63 199.6c-.96 0-1.64-.233-2.03-.7-.4-.467-.6-1.062-.6-1.785v-.56c.02-.21.06-.397.11-.56l3.92-20.37h-6.37l.38-2.345h9.21l-4.55 23.625.87.28 7.18-6.09 1.57 1.54-3.64 3.29c-.84.77-1.56 1.4-2.17 1.89-.61.467-1.14.84-1.61 1.12a4.78 4.78 0 0 1-1.22.525c-.35.093-.7.14-1.05.14ZM1224.59 199.6c-2.28 0-4.05-.63-5.28-1.89-1.24-1.283-1.86-3.232-1.86-5.845 0-1.633.25-3.127.74-4.48.49-1.377 1.16-2.555 2.03-3.535a8.925 8.925 0 0 1 3.15-2.31c1.23-.56 2.58-.84 4.02-.84.89 0 1.71.105 2.45.315.75.21 1.39.525 1.93.945.56.397.99.898 1.29 1.505.31.607.46 1.307.46 2.1 0 .63-.15 1.283-.46 1.96-.28.677-.88 1.307-1.82 1.89-.91.583-2.24 1.073-3.99 1.47-1.72.397-4.02.63-6.89.7a3.29 3.29 0 0 0-.04.525v.28c0 .63.06 1.237.18 1.82.11.583.34 1.108.66 1.575.33.443.78.805 1.37 1.085.58.257 1.35.385 2.31.385.65 0 1.23-.07 1.75-.21a5.867 5.867 0 0 0 1.5-.7c.49-.327.96-.735 1.4-1.225.47-.513.96-1.132 1.47-1.855l1.93 1.19c-1.03 1.68-2.2 2.963-3.5 3.85-1.29.863-2.88 1.295-4.8 1.295Zm2.56-16.625c-1.82 0-3.3.548-4.45 1.645-1.14 1.097-1.84 2.672-2.1 4.725l-.03.35c2.19-.07 3.95-.233 5.28-.49 1.36-.28 2.38-.607 3.08-.98.73-.373 1.2-.782 1.44-1.225.23-.443.35-.887.35-1.33 0-.373-.07-.723-.21-1.05a1.956 1.956 0 0 0-.6-.84c-.28-.257-.65-.455-1.12-.595-.44-.14-.99-.21-1.64-.21ZM1266.56 199.6c-2.28 0-4.04-.63-5.28-1.89-1.24-1.283-1.86-3.232-1.86-5.845 0-1.633.25-3.127.74-4.48.49-1.377 1.17-2.555 2.03-3.535a9.108 9.108 0 0 1 3.15-2.31c1.24-.56 2.58-.84 4.02-.84.89 0 1.71.105 2.45.315.75.21 1.39.525 1.93.945.56.397.99.898 1.29 1.505.31.607.46 1.307.46 2.1 0 .63-.15 1.283-.46 1.96-.28.677-.88 1.307-1.82 1.89-.91.583-2.24 1.073-3.99 1.47-1.72.397-4.02.63-6.89.7-.02.187-.04.362-.04.525v.28c0 .63.06 1.237.18 1.82s.34 1.108.66 1.575c.33.443.79.805 1.37 1.085.58.257 1.35.385 2.31.385.65 0 1.24-.07 1.75-.21a5.714 5.714 0 0 0 1.5-.7c.49-.327.96-.735 1.4-1.225.47-.513.96-1.132 1.47-1.855l1.93 1.19c-1.03 1.68-2.19 2.963-3.5 3.85-1.28.863-2.88 1.295-4.8 1.295Zm2.56-16.625c-1.82 0-3.3.548-4.45 1.645-1.14 1.097-1.84 2.672-2.1 4.725l-.03.35c2.19-.07 3.95-.233 5.28-.49 1.36-.28 2.38-.607 3.08-.98.73-.373 1.21-.782 1.44-1.225.23-.443.35-.887.35-1.33 0-.373-.07-.723-.21-1.05a1.956 1.956 0 0 0-.6-.84c-.28-.257-.65-.455-1.12-.595-.44-.14-.99-.21-1.64-.21ZM1307.56 199.6c-.96 0-1.64-.233-2.03-.7-.4-.467-.6-1.062-.6-1.785v-.56c.03-.21.06-.397.11-.56l3.92-20.37h-6.37l.38-2.345h9.21l-4.55 23.625.87.28 7.18-6.09 1.57 1.54-3.64 3.29c-.84.77-1.56 1.4-2.17 1.89-.6.467-1.14.84-1.61 1.12a4.78 4.78 0 0 1-1.22.525c-.35.093-.7.14-1.05.14ZM1329.1 199.6c-1.16 0-2.19-.187-3.08-.56a6.207 6.207 0 0 1-2.17-1.54c-.58-.677-1.02-1.482-1.33-2.415-.3-.957-.45-1.995-.45-3.115 0-1.727.24-3.278.73-4.655.49-1.4 1.16-2.59 2-3.57a8.762 8.762 0 0 1 3.01-2.24c1.14-.537 2.38-.805 3.71-.805 1.17 0 2.19.187 3.08.56.89.373 1.62.898 2.2 1.575.61.653 1.05 1.458 1.33 2.415.31.933.46 1.96.46 3.08 0 1.727-.25 3.29-.74 4.69-.49 1.377-1.16 2.555-2.03 3.535a8.694 8.694 0 0 1-3.01 2.275c-1.14.513-2.38.77-3.71.77Zm.14-2.38c1.71 0 3.06-.513 4.06-1.54 1.03-1.05 1.7-2.473 2-4.27l.35-2.1c.07-.42.12-.77.14-1.05.02-.28.03-.525.03-.735 0-1.54-.39-2.66-1.19-3.36-.79-.723-1.86-1.085-3.22-1.085-1.7 0-3.06.525-4.09 1.575-1 1.027-1.66 2.438-1.96 4.235l-.35 2.1c-.07.42-.12.77-.14 1.05-.02.28-.04.525-.04.735 0 1.54.4 2.672 1.19 3.395.8.7 1.87 1.05 3.22 1.05ZM1350.27 199.6c-1.12 0-2.12-.187-2.98-.56a6.142 6.142 0 0 1-2.13-1.54c-.56-.677-1-1.482-1.3-2.415-.28-.957-.42-1.995-.42-3.115 0-1.727.25-3.278.74-4.655.49-1.4 1.15-2.59 1.99-3.57a8.515 8.515 0 0 1 2.94-2.24 8.457 8.457 0 0 1 3.64-.805c.96 0 1.78.117 2.48.35.73.233 1.35.548 1.86.945.51.373.92.828 1.22 1.365.33.537.58 1.097.74 1.68l-2.35.91c-.35-1.12-.87-1.878-1.57-2.275-.68-.397-1.57-.595-2.69-.595-1.54 0-2.8.502-3.78 1.505-.96 1.003-1.6 2.45-1.93 4.34l-.35 2.1c-.07.42-.12.747-.14.98a8.21 8.21 0 0 0-.04.7c0 1.54.4 2.683 1.2 3.43.81.723 1.88 1.085 3.21 1.085.4 0 .8-.047 1.2-.14.42-.093.86-.292 1.33-.595.49-.303 1.01-.747 1.57-1.33.56-.583 1.2-1.365 1.93-2.345l1.95 1.155a24.1 24.1 0 0 1-1.71 2.45c-.58.7-1.21 1.283-1.89 1.75-.65.467-1.38.817-2.17 1.05-.77.257-1.62.385-2.55.385ZM1369.26 199.6c-1.78 0-3.14-.583-4.1-1.75-.93-1.167-1.4-2.917-1.4-5.25 0-1.213.14-2.508.42-3.885.3-1.4.78-2.695 1.44-3.885a8.637 8.637 0 0 1 2.59-2.94c1.07-.793 2.39-1.19 3.95-1.19 1.31 0 2.39.303 3.26.91.86.583 1.49 1.47 1.89 2.66h.1l.53-3.15h2.73l-2.59 15.61h2.48l-.42 2.45h-2.03c-1.12 0-1.89-.292-2.31-.875-.4-.583-.52-1.283-.38-2.1l.21-1.295h-.11c-.7 1.423-1.53 2.567-2.48 3.43-.96.84-2.22 1.26-3.78 1.26Zm.94-2.415c.75 0 1.47-.152 2.17-.455.72-.327 1.39-.84 2-1.54.46-.537.86-1.155 1.19-1.855.35-.7.59-1.458.73-2.275l.67-3.99c.21-1.26-.09-2.228-.88-2.905-.77-.7-1.82-1.05-3.15-1.05-1.68 0-3.01.525-3.99 1.575-.96 1.05-1.57 2.415-1.85 4.095l-.42 2.52c-.05.327-.09.618-.11.875-.02.233-.03.467-.03.7 0 1.353.3 2.415.91 3.185.63.747 1.55 1.12 2.76 1.12ZM1391.5 199.6c-.95 0-1.63-.233-2.03-.7-.39-.467-.59-1.062-.59-1.785v-.56c.02-.21.06-.397.1-.56l3.92-20.37h-6.37l.39-2.345h9.2l-4.55 23.625.88.28 7.17-6.09 1.58 1.54-3.64 3.29c-.84.77-1.57 1.4-2.17 1.89-.61.467-1.15.84-1.61 1.12-.45.257-.85.432-1.23.525-.35.093-.7.14-1.05.14ZM1413.47 199.6c-2.29 0-4.05-.63-5.29-1.89-1.23-1.283-1.85-3.232-1.85-5.845 0-1.633.24-3.127.73-4.48.49-1.377 1.17-2.555 2.03-3.535a9.108 9.108 0 0 1 3.15-2.31c1.24-.56 2.58-.84 4.03-.84.89 0 1.7.105 2.45.315.75.21 1.39.525 1.92.945.56.397 1 .898 1.3 1.505.3.607.45 1.307.45 2.1 0 .63-.15 1.283-.45 1.96-.28.677-.89 1.307-1.82 1.89-.91.583-2.24 1.073-3.99 1.47-1.73.397-4.03.63-6.9.7-.02.187-.03.362-.03.525v.28c0 .63.06 1.237.17 1.82.12.583.34 1.108.67 1.575.33.443.78.805 1.36 1.085.59.257 1.36.385 2.31.385.66 0 1.24-.07 1.75-.21a5.931 5.931 0 0 0 1.51-.7c.49-.327.96-.735 1.4-1.225.47-.513.96-1.132 1.47-1.855l1.92 1.19c-1.02 1.68-2.19 2.963-3.5 3.85-1.28.863-2.88 1.295-4.79 1.295Zm2.55-16.625c-1.82 0-3.3.548-4.44 1.645-1.14 1.097-1.84 2.672-2.1 4.725l-.04.35c2.2-.07 3.96-.233 5.29-.49 1.35-.28 2.38-.607 3.08-.98.72-.373 1.2-.782 1.43-1.225.24-.443.35-.887.35-1.33 0-.373-.07-.723-.21-1.05a1.854 1.854 0 0 0-.59-.84c-.28-.257-.65-.455-1.12-.595-.44-.14-.99-.21-1.65-.21ZM1433.76 199.495c-.82 0-1.4-.152-1.75-.455-.35-.303-.53-.677-.53-1.12 0-.14.01-.303.04-.49.02-.21.05-.42.1-.63.12-.63.4-1.132.84-1.505.44-.373 1.11-.56 2-.56.81 0 1.4.152 1.75.455.35.303.52.677.52 1.12 0 .14-.01.315-.03.525-.03.187-.06.385-.11.595-.12.63-.4 1.132-.84 1.505-.44.373-1.11.56-1.99.56Z"/></svg>