<svg width="393" height="379" viewBox="0 0 393 379" fill="none" xmlns="http://www.w3.org/2000/svg">
<path d="M30.3333 122.667L15.2507 137.749L0.167992 122.667L15.2507 107.584L30.3333 122.667ZM137 378.667C131.342 378.667 125.916 376.419 121.915 372.418C117.914 368.418 115.667 362.991 115.667 357.333C115.667 351.675 117.914 346.249 121.915 342.248C125.916 338.248 131.342 336 137 336V378.667ZM121.917 244.416L15.2507 137.749L45.416 107.584L152.083 214.251L121.917 244.416ZM15.2507 107.584L121.917 0.917328L152.083 31.0827L45.416 137.749L15.2507 107.584ZM30.3333 101.333H254.333V144H30.3333V101.333ZM254.333 378.667H137V336H254.333V378.667ZM393 240C393 276.777 378.391 312.047 352.385 338.052C326.38 364.057 291.11 378.667 254.333 378.667V336C266.94 336 279.424 333.517 291.071 328.692C302.718 323.868 313.301 316.797 322.216 307.882C331.13 298.968 338.201 288.385 343.026 276.738C347.85 265.09 350.333 252.607 350.333 240H393ZM254.333 101.333C291.11 101.333 326.38 115.943 352.385 141.948C378.391 167.953 393 203.223 393 240H350.333C350.333 227.393 347.85 214.91 343.026 203.262C338.201 191.615 331.13 181.032 322.216 172.118C313.301 163.203 302.718 156.132 291.071 151.308C279.424 146.483 266.94 144 254.333 144V101.333Z" fill="white"/>
</svg>
