<?xml version="1.0" encoding="UTF-8" standalone="no"?>
<svg
   width="32"
   height="32"
   viewBox="0 0 512 512"
   version="1.1"
   id="svg2"
   sodipodi:docname="heart-fill.svg"
   inkscape:version="1.4.2 (ebf0e940, 2025-05-08)"
   xmlns:inkscape="http://www.inkscape.org/namespaces/inkscape"
   xmlns:sodipodi="http://sodipodi.sourceforge.net/DTD/sodipodi-0.dtd"
   xmlns="http://www.w3.org/2000/svg"
   xmlns:svg="http://www.w3.org/2000/svg">
  <path
     style="baseline-shift:baseline;display:inline;overflow:visible;opacity:1;vector-effect:none;fill:#ffffff;stroke-linecap:round;stroke-linejoin:round;enable-background:accumulate;stop-color:#000000;stop-opacity:1"
     d="M 140.78125,58.3125 C 109.2864,58.305557 77.786304,70.599571 53.96875,95.21875 L 53.9375,95.25 a 14.874187,14.874187 0 0 0 0,0.03125 C 6.2846875,144.56002 6.2740007,224.23163 53.90625,273.53125 L 234.46875,460.375 a 14.874187,14.874187 0 0 0 21.375,0 l 180.5625,-186.84375 c 47.61734,-49.28419 47.616,-128.93374 0,-178.21875 -47.62251,-49.309443 -126.04441,-49.319914 -173.6875,-0.03125 -6.76654,7.00509 -12.60373,14.78696 -17.5625,23.125 -4.95865,-8.33771 -10.79619,-16.12015 -17.5625,-23.125 a 14.874187,14.874187 0 0 0 -0.0312,0 C 203.75535,70.651685 172.2761,58.319443 140.78125,58.3125 Z"
     id="path6" />
  <defs
     id="defs2" />
  <sodipodi:namedview
     id="namedview2"
     pagecolor="#ffffff"
     bordercolor="#000000"
     borderopacity="0.25"
     inkscape:showpageshadow="2"
     inkscape:pageopacity="0.0"
     inkscape:pagecheckerboard="0"
     inkscape:deskcolor="#d1d1d1"
     inkscape:zoom="12.917055"
     inkscape:cx="4.2579364"
     inkscape:cy="15.018903"
     inkscape:window-width="1512"
     inkscape:window-height="859"
     inkscape:window-x="0"
     inkscape:window-y="38"
     inkscape:window-maximized="1"
     inkscape:current-layer="svg2" />
</svg>
