<?xml version="1.0" encoding="UTF-8" standalone="no"?>
<svg
   width="32"
   height="32"
   viewBox="0 0 512 512"
   version="1.1"
   id="svg2"
   sodipodi:docname="heart.svg"
   inkscape:version="1.4.2 (ebf0e940, 2025-05-08)"
   xmlns:inkscape="http://www.inkscape.org/namespaces/inkscape"
   xmlns:sodipodi="http://sodipodi.sourceforge.net/DTD/sodipodi-0.dtd"
   xmlns="http://www.w3.org/2000/svg"
   xmlns:svg="http://www.w3.org/2000/svg">
  <path
     style="baseline-shift:baseline;display:inline;overflow:visible;vector-effect:none;fill:#ffffff;stroke-linecap:round;stroke-linejoin:round;enable-background:accumulate;stop-color:#000000;stop-opacity:1;opacity:1"
     d="M 140.78125,58.314453 C 109.2864,58.30751 77.788257,70.613243 53.970703,95.232422 l -0.02734,0.02734 a 14.874187,14.874187 0 0 0 -0.0059,0.0098 C 6.2846505,144.54833 6.2681417,224.22382 53.900391,273.52344 a 14.874187,14.874187 0 0 0 0,0.002 L 234.45898,460.36133 a 14.874187,14.874187 0 0 0 21.38868,0 L 436.40625,273.52539 a 14.874187,14.874187 0 0 0 0,-0.002 c 47.61734,-49.28419 47.618,-128.92984 0.002,-178.214846 C 388.78574,45.999101 310.37356,45.98282 262.73047,95.271484 a 14.874187,14.874187 0 0 0 -0.004,0.0039 c -6.76654,7.005089 -12.61545,14.798679 -17.57422,23.136719 -4.95865,-8.33771 -10.80595,-16.13187 -17.57226,-23.136719 a 14.874187,14.874187 0 0 0 -0.004,-0.0039 C 203.76889,70.641919 172.2761,58.321396 140.78125,58.314453 Z m -0.006,29.335938 c 23.59448,0.0052 47.18748,9.436849 65.41406,28.292969 11.88973,12.31033 20.384,27.78658 24.51172,44.78125 a 14.874187,14.874187 0 0 0 28.9043,0 c 4.12772,-16.99467 12.62199,-32.47092 24.51172,-44.78125 l 0.002,-0.002 c 6.4e-4,-6.6e-4 0.001,-0.001 0.002,-0.002 36.47569,-37.731281 94.43377,-37.717156 130.89258,0.0332 a 14.874187,14.874187 0 0 0 0.002,0.002 c 36.4559,37.73204 36.45522,99.14642 0,136.87891 L 245.15234,428.62305 75.291016,252.85547 v -0.002 C 38.827235,215.11216 38.837847,153.681 75.3125,115.95313 l 0.0078,-0.008 0.02344,-0.0254 a 14.874187,14.874187 0 0 0 0.0059,-0.006 C 93.583847,97.066117 117.18091,87.645174 140.77539,87.650391 Z"
     id="path4" />
  <defs
     id="defs2" />
  <sodipodi:namedview
     id="namedview2"
     pagecolor="#ffffff"
     bordercolor="#000000"
     borderopacity="0.25"
     inkscape:showpageshadow="2"
     inkscape:pageopacity="0.0"
     inkscape:pagecheckerboard="0"
     inkscape:deskcolor="#d1d1d1"
     inkscape:zoom="5.9320553"
     inkscape:cx="7.417328"
     inkscape:cy="20.060501"
     inkscape:window-width="1512"
     inkscape:window-height="859"
     inkscape:window-x="0"
     inkscape:window-y="38"
     inkscape:window-maximized="1"
     inkscape:current-layer="svg2" />
</svg>
