<svg width="211" height="163" viewBox="0 0 211 163" fill="none" xmlns="http://www.w3.org/2000/svg">
<path fill-rule="evenodd" clip-rule="evenodd" d="M156.752 72.3071C153.112 72.3071 151.063 70.2583 151.063 67.5246V41.8111C151.063 39.0774 153.112 37.0286 156.752 37.0286C168.36 37.0286 174.734 43.8599 174.734 54.7821C174.734 65.7043 168.36 72.3071 156.752 72.3071Z" fill="white"/>
<path d="M151.063 67.5246C151.063 70.2583 153.112 72.3071 156.752 72.3071C168.36 72.3071 174.734 65.7043 174.734 54.7821C174.734 43.8599 168.36 37.0286 156.752 37.0286C153.112 37.0286 151.063 39.0774 151.063 41.8111V67.5246Z" fill="white"/>
<path d="M0 51.8223C0 40.337 2.21125 28.5144 9.73926 18.915C17.4809 9.04342 28.6659 4.25604 40.835 2.47266C40.8457 2.47103 40.8565 2.4694 40.8672 2.46777C40.8994 2.46306 40.9316 2.45682 40.9639 2.45215C55.9009 0.188725 75.0015 1.41564e-06 99.3867 0C136.439 0 144.752 0.457887 158.455 1.65723L158.716 1.67969L158.976 1.70996C172.519 3.31649 185.536 7.64896 195.305 16.7881C205.521 26.3464 210.164 39.2561 210.164 53.6426V57.0547C210.164 83.8925 189.383 104.92 164.381 107.479C161.94 115.339 158.567 121.882 155.121 127.559L155.027 127.714L154.93 127.867C150.044 135.542 142.801 144.408 131.728 151.295C120.533 158.257 106.391 162.594 88.6924 162.594H81.6396C55.2016 162.594 28.2728 153.222 13.415 125.665L13.416 125.664C1.66705 104.078 1.74983e-05 81.3622 0 51.8223ZM17.0059 54.5439C17.1217 82.362 19.1192 100.619 28.3789 117.597C39.1304 137.538 58.4867 145.349 80.585 145.588L81.6393 145.594H88.692L90.0684 145.583C117.819 145.159 131.842 131.938 139.823 119.916L140.589 118.738C144.458 112.364 147.871 105.311 149.691 96.4309L151.055 90.7409H159.25L160.102 90.7305C177.664 90.2853 192.68 76.1155 193.152 57.9375L193.164 57.0547V53.6421C193.164 32.4765 179.965 21.3193 156.973 18.592C144.002 17.4567 136.263 17 99.387 17C74.58 17 56.8265 17.2283 43.3987 19.2771C24.5099 22.0108 17 32.7046 17 51.8218L17.0059 54.5439Z" fill="white"/>
<path d="M39.0062 66.5403C39.0062 79.9678 46.5162 91.5751 56.0747 100.683C62.449 106.83 72.4643 113.204 79.289 117.301C81.3378 118.437 83.3866 119.122 85.664 119.122C88.397 119.122 90.668 118.437 92.495 117.301C99.326 113.204 109.335 106.83 115.481 100.683C125.268 91.5811 132.778 79.9743 132.778 66.5403C132.778 51.9709 121.856 39 106.151 39C96.821 39 90.446 43.7824 85.664 50.3787C81.3378 43.7759 74.7415 39 65.405 39C49.4719 39 39 51.9709 39 66.5403" fill="white"/>
</svg>
