<?xml version="1.0" encoding="UTF-8" standalone="no"?>
<svg
   version="1.1"
   viewBox="-10 0 373 373"
   id="svg1"
   width="373"
   height="373"
   xmlns="http://www.w3.org/2000/svg"
   xmlns:svg="http://www.w3.org/2000/svg">
  <defs
     id="defs1" />
  <path
     d="m 129,235 q 40,0 68,-28 28,-28 28,-68 0,-40 -28,-68 -28,-28 -68,-28 -40,0 -68,28 -28,28 -28,68 0,40 28,68 28,28 68,28 z m 128,0 106,106 -32,32 -106,-106 v -17 l -6,-6 Q 181,277 129,277 71,277 30.5,237 -10,197 -10,139 -10,81 30.5,40.5 71,0 129,0 q 58,0 98,40.5 40,40.5 40,98.5 0,21 -10,47.5 -10,26.5 -23,42.5 l 6,6 z"
     id="path1"
     fill="#ffffff" />
</svg>
